<svg width="1200" height="360" viewBox="0 0 1200 360" xmlns="http://www.w3.org/2000/svg">
  <defs>
    <linearGradient id="bg" x1="0%" y1="0%" x2="100%" y2="100%">
      <stop offset="0%" stop-color="#0b1220"/>
      <stop offset="50%" stop-color="#0f1b30"/>
      <stop offset="100%" stop-color="#132542"/>
    </linearGradient>

    <linearGradient id="titleGrad" x1="0%" y1="0%" x2="100%" y2="0%">
      <stop offset="0%" stop-color="#38bdf8">
        <animate attributeName="stop-color" values="#38bdf8;#60a5fa;#38bdf8" dur="7s" repeatCount="indefinite"/>
      </stop>
      <stop offset="50%" stop-color="#7dd3fc"/>
      <stop offset="100%" stop-color="#60a5fa">
        <animate attributeName="stop-color" values="#60a5fa;#38bdf8;#60a5fa" dur="7s" repeatCount="indefinite"/>
      </stop>
    </linearGradient>

    <radialGradient id="glow1" cx="50%" cy="50%" r="50%">
      <stop offset="0%" stop-color="#38bdf8" stop-opacity="0.35"/>
      <stop offset="100%" stop-color="#38bdf8" stop-opacity="0"/>
    </radialGradient>
    <radialGradient id="glow2" cx="50%" cy="50%" r="50%">
      <stop offset="0%" stop-color="#60a5fa" stop-opacity="0.3"/>
      <stop offset="100%" stop-color="#60a5fa" stop-opacity="0"/>
    </radialGradient>

    <filter id="soft" x="-50%" y="-50%" width="200%" height="200%">
      <feGaussianBlur stdDeviation="20"/>
    </filter>

    <clipPath id="rounded">
      <rect width="1200" height="360" rx="24" ry="24"/>
    </clipPath>
  </defs>

  <g clip-path="url(#rounded)">
    <rect width="1200" height="360" fill="url(#bg)"/>

    <circle cx="160" cy="80" r="180" fill="url(#glow1)" filter="url(#soft)">
      <animate attributeName="cy" values="80;100;80" dur="8s" repeatCount="indefinite"/>
    </circle>
    <circle cx="1060" cy="90" r="200" fill="url(#glow2)" filter="url(#soft)">
      <animate attributeName="cy" values="90;70;90" dur="9s" repeatCount="indefinite"/>
    </circle>

    <g opacity="0.15" fill="#7dd3fc">
      <circle cx="90" cy="50" r="1.6"/>
      <circle cx="200" cy="35" r="1.6"/>
      <circle cx="1000" cy="55" r="1.6"/>
      <circle cx="1100" cy="90" r="1.6"/>
      <circle cx="140" cy="260" r="1.6"/>
      <circle cx="1080" cy="270" r="1.6"/>
      <circle cx="600" cy="40" r="1.6"/>
    </g>

    <g fill="#7dd3fc">
      <g opacity="0.9">
        <animate attributeName="opacity" values="0.9;0.25;0.9" dur="2.4s" repeatCount="indefinite"/>
        <path d="M120,60 L126,74 L140,80 L126,86 L120,100 L114,86 L100,80 L114,74 Z"/>
      </g>
      <g opacity="0.7">
        <animate attributeName="opacity" values="0.25;0.9;0.25" dur="3.1s" repeatCount="indefinite"/>
        <path d="M1080,140 L1084,150 L1094,154 L1084,158 L1080,168 L1076,158 L1066,154 L1076,150 Z"/>
      </g>
      <g opacity="0.8">
        <animate attributeName="opacity" values="0.4;1;0.4" dur="2.8s" repeatCount="indefinite"/>
        <path d="M95,220 L99,229 L108,233 L99,237 L95,246 L91,237 L82,233 L91,229 Z"/>
      </g>
      <g opacity="0.6">
        <animate attributeName="opacity" values="0.8;0.15;0.8" dur="3.6s" repeatCount="indefinite"/>
        <path d="M1120,250 L1123,257 L1130,260 L1123,263 L1120,270 L1117,263 L1110,260 L1117,257 Z"/>
      </g>
      <g opacity="0.75">
        <animate attributeName="opacity" values="0.75;0.2;0.75" dur="2.9s" repeatCount="indefinite"/>
        <path d="M980,50 L983,58 L991,61 L983,64 L980,72 L977,64 L969,61 L977,58 Z"/>
      </g>
      <circle cx="240" cy="260" r="2.5" opacity="0.7">
        <animate attributeName="opacity" values="0.7;0.1;0.7" dur="2.2s" repeatCount="indefinite"/>
      </circle>
      <circle cx="960" cy="230" r="2.2" opacity="0.8">
        <animate attributeName="opacity" values="0.2;0.9;0.2" dur="2.6s" repeatCount="indefinite"/>
      </circle>
      <circle cx="330" cy="45" r="1.8" opacity="0.6">
        <animate attributeName="opacity" values="0.6;1;0.6" dur="3.3s" repeatCount="indefinite"/>
      </circle>
      <circle cx="1150" cy="180" r="2" opacity="0.5">
        <animate attributeName="opacity" values="0.5;0.9;0.5" dur="3.8s" repeatCount="indefinite"/>
      </circle>
      <circle cx="70" cy="170" r="1.8" opacity="0.6">
        <animate attributeName="opacity" values="0.9;0.3;0.9" dur="2.7s" repeatCount="indefinite"/>
      </circle>
    </g>

    <path d="M0,300 C150,270 300,325 500,300 C700,275 900,255 1100,285 C1150,292 1180,297 1200,295 L1200,360 L0,360 Z"
          fill="#1e3a5f" opacity="0.6"/>
    <path d="M0,320 C200,295 420,335 650,318 C850,304 1000,292 1200,312 L1200,360 L0,360 Z"
          fill="#274a72" opacity="0.5"/>

    <rect width="1200" height="360" rx="24" ry="24" fill="none" stroke="#7dd3fc" stroke-opacity="0.12" stroke-width="1.5"/>
  </g>

  <text x="600" y="160" font-family="Segoe UI, Arial, sans-serif" font-size="66" font-weight="800"
        text-anchor="middle" fill="url(#titleGrad)" letter-spacing="1">
    Amina Ali
  </text>

  <text x="600" y="204" font-family="Segoe UI, Arial, sans-serif" font-size="21" font-weight="500"
        text-anchor="middle" fill="#cbd5e1" letter-spacing="0.5">
    Software Engineer &#8226; Full-Stack Developer &#8226; Product Builder
  </text>

  <rect x="500" y="228" width="200" height="3" rx="1.5" fill="url(#titleGrad)"/>

  <text x="600" y="270" font-family="Segoe UI, Arial, sans-serif" font-size="15" font-style="italic"
        text-anchor="middle" fill="#94a3b8" opacity="0.9">
    building practical software, one thoughtful product at a time
  </text>
</svg>
